<svg width="16" height="16" viewBox="0 0 16 16" fill="none" xmlns="http://www.w3.org/2000/svg">
<path d="M6.8125 0.90332C8.36302 0.855409 9.87381 1.39954 11.0371 2.42578C12.2004 3.45207 12.9285 4.8833 13.0742 6.42773C13.2171 7.94235 12.7874 9.45302 11.874 10.667L15.0293 13.8213C15.1081 13.9002 15.1712 13.9936 15.2139 14.0967C15.2566 14.1997 15.2783 14.3103 15.2783 14.4219C15.2783 14.5336 15.2566 14.6449 15.2139 14.748C15.1712 14.8511 15.1082 14.9445 15.0293 15.0234C14.9503 15.1024 14.8561 15.1653 14.7529 15.208C14.6499 15.2506 14.5393 15.2725 14.4277 15.2725C14.3162 15.2724 14.2056 15.2507 14.1025 15.208C13.9994 15.1653 13.9051 15.1024 13.8262 15.0234L10.6719 11.8682C9.45808 12.7838 7.94661 13.2163 6.43066 13.0742C4.88502 12.9293 3.45281 12.2003 2.42578 11.0361C1.39874 9.87181 0.854201 8.3594 0.90332 6.80762C0.95245 5.25582 1.59081 3.78062 2.68945 2.68359C3.78713 1.58736 5.26191 0.951302 6.8125 0.90332ZM7.01172 2.62402C5.85098 2.62875 4.73874 3.09231 3.91797 3.91309C3.09746 4.7338 2.63464 5.84534 2.62988 7.00586C2.62516 8.16641 3.07876 9.28199 3.89258 10.1094C4.29993 10.5234 4.78604 10.8526 5.32129 11.0781C5.8565 11.3036 6.43095 11.4215 7.01172 11.4238C7.59246 11.4262 8.16808 11.3139 8.70508 11.0928C9.24215 10.8716 9.72992 10.5455 10.1406 10.1348C10.5513 9.72408 10.8765 9.23624 11.0977 8.69922C11.3188 8.16216 11.4321 7.58667 11.4297 7.00586C11.4273 6.42508 11.3095 5.85064 11.084 5.31543C10.8585 4.78022 10.5292 4.29503 10.1152 3.8877C9.28783 3.07366 8.17241 2.61933 7.01172 2.62402Z" fill="#CACDD8" stroke="#CACDD8" stroke-width="0.2"/>
</svg>
