<svg width="56" height="14" viewBox="0 0 56 14" fill="none" xmlns="http://www.w3.org/2000/svg">
<path d="M1.9885 8.446H5.2085V10H0.0285001V0.228H1.9885V8.446ZM5.95028 6.094C5.95028 5.31 6.10428 4.61467 6.41228 4.008C6.72961 3.40133 7.15428 2.93467 7.68628 2.608C8.22761 2.28133 8.82961 2.118 9.49228 2.118C10.0709 2.118 10.5749 2.23467 11.0043 2.468C11.4429 2.70133 11.7929 2.99533 12.0543 3.35V2.244H14.0283V10H12.0543V8.866C11.8023 9.23 11.4523 9.53333 11.0043 9.776C10.5656 10.0093 10.0569 10.126 9.47828 10.126C8.82495 10.126 8.22761 9.958 7.68628 9.622C7.15428 9.286 6.72961 8.81467 6.41228 8.208C6.10428 7.592 5.95028 6.88733 5.95028 6.094ZM12.0543 6.122C12.0543 5.646 11.9609 5.24 11.7743 4.904C11.5876 4.55867 11.3356 4.29733 11.0183 4.12C10.7009 3.93333 10.3603 3.84 9.99628 3.84C9.63228 3.84 9.29628 3.92867 8.98828 4.106C8.68028 4.28333 8.42828 4.54467 8.23228 4.89C8.04561 5.226 7.95228 5.62733 7.95228 6.094C7.95228 6.56067 8.04561 6.97133 8.23228 7.326C8.42828 7.67133 8.68028 7.93733 8.98828 8.124C9.30561 8.31067 9.64161 8.404 9.99628 8.404C10.3603 8.404 10.7009 8.31533 11.0183 8.138C11.3356 7.95133 11.5876 7.69 11.7743 7.354C11.9609 7.00867 12.0543 6.598 12.0543 6.122ZM17.9026 3.364C18.1546 3.00933 18.4999 2.71533 18.9386 2.482C19.3866 2.23933 19.8952 2.118 20.4646 2.118C21.1272 2.118 21.7246 2.28133 22.2566 2.608C22.7979 2.93467 23.2226 3.40133 23.5306 4.008C23.8479 4.60533 24.0066 5.30067 24.0066 6.094C24.0066 6.88733 23.8479 7.592 23.5306 8.208C23.2226 8.81467 22.7979 9.286 22.2566 9.622C21.7246 9.958 21.1272 10.126 20.4646 10.126C19.8952 10.126 19.3912 10.0093 18.9526 9.776C18.5232 9.54267 18.1732 9.24867 17.9026 8.894V13.696H15.9426V2.244H17.9026V3.364ZM22.0046 6.094C22.0046 5.62733 21.9066 5.226 21.7106 4.89C21.5239 4.54467 21.2719 4.28333 20.9546 4.106C20.6466 3.92867 20.3106 3.84 19.9466 3.84C19.5919 3.84 19.2559 3.93333 18.9386 4.12C18.6306 4.29733 18.3786 4.55867 18.1826 4.904C17.9959 5.24933 17.9026 5.65533 17.9026 6.122C17.9026 6.58867 17.9959 6.99467 18.1826 7.34C18.3786 7.68533 18.6306 7.95133 18.9386 8.138C19.2559 8.31533 19.5919 8.404 19.9466 8.404C20.3106 8.404 20.6466 8.31067 20.9546 8.124C21.2719 7.93733 21.5239 7.67133 21.7106 7.326C21.9066 6.98067 22.0046 6.57 22.0046 6.094ZM27.7128 3.854V7.606C27.7128 7.86733 27.7735 8.05867 27.8948 8.18C28.0255 8.292 28.2402 8.348 28.5388 8.348H29.4488V10H28.2168C26.5648 10 25.7388 9.19733 25.7388 7.592V3.854H24.8148V2.244H25.7388V0.325999H27.7128V2.244H29.4488V3.854H27.7128ZM34.3026 10.126C33.5559 10.126 32.8839 9.96267 32.2866 9.636C31.6892 9.3 31.2179 8.82867 30.8726 8.222C30.5366 7.61533 30.3686 6.91533 30.3686 6.122C30.3686 5.32867 30.5412 4.62867 30.8866 4.022C31.2412 3.41533 31.7219 2.94867 32.3286 2.622C32.9352 2.286 33.6119 2.118 34.3586 2.118C35.1052 2.118 35.7819 2.286 36.3886 2.622C36.9952 2.94867 37.4712 3.41533 37.8166 4.022C38.1712 4.62867 38.3486 5.32867 38.3486 6.122C38.3486 6.91533 38.1666 7.61533 37.8026 8.222C37.4479 8.82867 36.9626 9.3 36.3466 9.636C35.7399 9.96267 35.0586 10.126 34.3026 10.126ZM34.3026 8.418C34.6572 8.418 34.9886 8.334 35.2966 8.166C35.6139 7.98867 35.8659 7.72733 36.0526 7.382C36.2392 7.03667 36.3326 6.61667 36.3326 6.122C36.3326 5.38467 36.1366 4.82 35.7446 4.428C35.3619 4.02667 34.8906 3.826 34.3306 3.826C33.7706 3.826 33.2992 4.02667 32.9166 4.428C32.5432 4.82 32.3566 5.38467 32.3566 6.122C32.3566 6.85933 32.5386 7.42867 32.9026 7.83C33.2759 8.222 33.7426 8.418 34.3026 8.418ZM41.7463 3.364C41.9983 3.00933 42.3436 2.71533 42.7823 2.482C43.2303 2.23933 43.739 2.118 44.3083 2.118C44.971 2.118 45.5683 2.28133 46.1003 2.608C46.6416 2.93467 47.0663 3.40133 47.3743 4.008C47.6916 4.60533 47.8503 5.30067 47.8503 6.094C47.8503 6.88733 47.6916 7.592 47.3743 8.208C47.0663 8.81467 46.6416 9.286 46.1003 9.622C45.5683 9.958 44.971 10.126 44.3083 10.126C43.739 10.126 43.235 10.0093 42.7963 9.776C42.367 9.54267 42.017 9.24867 41.7463 8.894V13.696H39.7863V2.244H41.7463V3.364ZM45.8483 6.094C45.8483 5.62733 45.7503 5.226 45.5543 4.89C45.3676 4.54467 45.1156 4.28333 44.7983 4.106C44.4903 3.92867 44.1543 3.84 43.7903 3.84C43.4356 3.84 43.0996 3.93333 42.7823 4.12C42.4743 4.29733 42.2223 4.55867 42.0263 4.904C41.8396 5.24933 41.7463 5.65533 41.7463 6.122C41.7463 6.58867 41.8396 6.99467 42.0263 7.34C42.2223 7.68533 42.4743 7.95133 42.7823 8.138C43.0996 8.31533 43.4356 8.404 43.7903 8.404C44.1543 8.404 44.4903 8.31067 44.7983 8.124C45.1156 7.93733 45.3676 7.67133 45.5543 7.326C45.7503 6.98067 45.8483 6.57 45.8483 6.094ZM52.2426 10.126C51.6079 10.126 51.0386 10.014 50.5346 9.79C50.0306 9.55667 49.6293 9.244 49.3306 8.852C49.0413 8.46 48.8826 8.026 48.8546 7.55H50.8286C50.8659 7.84867 51.0106 8.096 51.2626 8.292C51.5239 8.488 51.8459 8.586 52.2286 8.586C52.6019 8.586 52.8913 8.51133 53.0966 8.362C53.3113 8.21267 53.4186 8.02133 53.4186 7.788C53.4186 7.536 53.2879 7.34933 53.0266 7.228C52.7746 7.09733 52.3686 6.95733 51.8086 6.808C51.2299 6.668 50.7539 6.52333 50.3806 6.374C50.0166 6.22467 49.6993 5.996 49.4286 5.688C49.1673 5.38 49.0366 4.96467 49.0366 4.442C49.0366 4.01267 49.1579 3.62067 49.4006 3.266C49.6526 2.91133 50.0073 2.63133 50.4646 2.426C50.9313 2.22067 51.4773 2.118 52.1026 2.118C53.0266 2.118 53.7639 2.35133 54.3146 2.818C54.8653 3.27533 55.1686 3.896 55.2246 4.68H53.3486C53.3206 4.372 53.1899 4.12933 52.9566 3.952C52.7326 3.76533 52.4293 3.672 52.0466 3.672C51.6919 3.672 51.4166 3.73733 51.2206 3.868C51.0339 3.99867 50.9406 4.18067 50.9406 4.414C50.9406 4.67533 51.0713 4.876 51.3326 5.016C51.5939 5.14667 51.9999 5.282 52.5506 5.422C53.1106 5.562 53.5726 5.70667 53.9366 5.856C54.3006 6.00533 54.6133 6.23867 54.8746 6.556C55.1453 6.864 55.2853 7.27467 55.2946 7.788C55.2946 8.236 55.1686 8.63733 54.9166 8.992C54.6739 9.34667 54.3193 9.62667 53.8526 9.832C53.3953 10.028 52.8586 10.126 52.2426 10.126Z" fill="black"/>
</svg>
